<mxfile host="65bd71144e" compressed="false">
    <diagram id="86R6ZRfhnQo9sD8B5-7s" name="Page-1">
        <mxGraphModel dx="611" dy="1107" grid="1" gridSize="10" guides="1" tooltips="1" connect="1" arrows="1" fold="1" page="1" pageScale="1" pageWidth="827" pageHeight="1169" background="#161923" math="0" shadow="0">
            <root>
                <mxCell id="0"/>
                <mxCell id="1" parent="0"/>
                <mxCell id="Envj31jSL4E8aKWLNrxv-44" value="" style="rounded=0;whiteSpace=wrap;html=1;labelBackgroundColor=none;fontSize=14;fontColor=#BCBDD0;strokeColor=#bcbdd0;strokeWidth=2;fillColor=none;dashed=1;" parent="1" vertex="1">
                    <mxGeometry x="140" y="170" width="640" height="420" as="geometry"/>
                </mxCell>
                <mxCell id="Envj31jSL4E8aKWLNrxv-1" value="&lt;font style=&quot;font-size: 14px;&quot;&gt;Preconditioner&lt;/font&gt;" style="rounded=0;whiteSpace=wrap;html=1;fontColor=#BCBDD0;labelBackgroundColor=none;fillColor=none;strokeColor=#bcbdd0;strokeWidth=3;fontSize=14;" parent="1" vertex="1">
                    <mxGeometry x="160" y="440" width="120" height="80" as="geometry"/>
                </mxCell>
                <mxCell id="Envj31jSL4E8aKWLNrxv-2" value="&lt;font style=&quot;font-size: 14px;&quot;&gt;Time Count Generator&lt;/font&gt;" style="rounded=0;whiteSpace=wrap;html=1;fontColor=#BCBDD0;labelBackgroundColor=none;fillColor=none;strokeColor=#bcbdd0;strokeWidth=3;fontSize=14;" parent="1" vertex="1">
                    <mxGeometry x="400" y="240" width="120" height="80" as="geometry"/>
                </mxCell>
                <mxCell id="Envj31jSL4E8aKWLNrxv-3" value="&lt;font style=&quot;font-size: 14px;&quot;&gt;Buffer&lt;br style=&quot;font-size: 14px;&quot;&gt;&lt;/font&gt;" style="rounded=0;whiteSpace=wrap;html=1;fontColor=#BCBDD0;labelBackgroundColor=none;fillColor=none;strokeColor=#bcbdd0;strokeWidth=3;fontSize=14;" parent="1" vertex="1">
                    <mxGeometry x="400" y="440" width="120" height="80" as="geometry"/>
                </mxCell>
                <mxCell id="Envj31jSL4E8aKWLNrxv-4" value="" style="endArrow=classic;html=1;rounded=0;fontSize=14;fontColor=#BCBDD0;entryX=0;entryY=0.25;entryDx=0;entryDy=0;strokeColor=#bcbdd0;strokeWidth=3;exitX=1;exitY=0.5;exitDx=0;exitDy=0;" parent="1" source="Envj31jSL4E8aKWLNrxv-8" target="Envj31jSL4E8aKWLNrxv-1" edge="1">
                    <mxGeometry width="50" height="50" relative="1" as="geometry">
                        <mxPoint x="80" y="460" as="sourcePoint"/>
                        <mxPoint x="380" y="470" as="targetPoint"/>
                    </mxGeometry>
                </mxCell>
                <mxCell id="Envj31jSL4E8aKWLNrxv-5" value="" style="endArrow=classic;html=1;rounded=0;fontSize=14;fontColor=#BCBDD0;entryX=0;entryY=0.75;entryDx=0;entryDy=0;strokeColor=#bcbdd0;strokeWidth=3;exitX=1;exitY=0.5;exitDx=0;exitDy=0;" parent="1" source="Envj31jSL4E8aKWLNrxv-9" target="Envj31jSL4E8aKWLNrxv-1" edge="1">
                    <mxGeometry width="50" height="50" relative="1" as="geometry">
                        <mxPoint x="80" y="500" as="sourcePoint"/>
                        <mxPoint x="180" y="477.5" as="targetPoint"/>
                    </mxGeometry>
                </mxCell>
                <mxCell id="Envj31jSL4E8aKWLNrxv-6" value="" style="endArrow=none;html=1;rounded=0;fontSize=14;fontColor=#BCBDD0;strokeColor=#bcbdd0;strokeWidth=3;" parent="1" edge="1">
                    <mxGeometry width="50" height="50" relative="1" as="geometry">
                        <mxPoint x="110" y="470" as="sourcePoint"/>
                        <mxPoint x="130" y="450" as="targetPoint"/>
                    </mxGeometry>
                </mxCell>
                <mxCell id="Envj31jSL4E8aKWLNrxv-7" value="" style="endArrow=none;html=1;rounded=0;fontSize=14;fontColor=#BCBDD0;strokeColor=#bcbdd0;strokeWidth=3;" parent="1" edge="1">
                    <mxGeometry width="50" height="50" relative="1" as="geometry">
                        <mxPoint x="110" y="510" as="sourcePoint"/>
                        <mxPoint x="130" y="490" as="targetPoint"/>
                    </mxGeometry>
                </mxCell>
                <mxCell id="Envj31jSL4E8aKWLNrxv-8" value="&lt;i style=&quot;font-size: 14px;&quot;&gt;DUTY&lt;/i&gt;" style="text;html=1;strokeColor=none;fillColor=none;align=center;verticalAlign=middle;whiteSpace=wrap;rounded=0;labelBackgroundColor=none;fontSize=14;fontColor=#BCBDD0;" parent="1" vertex="1">
                    <mxGeometry x="50" y="440" width="50" height="40" as="geometry"/>
                </mxCell>
                <mxCell id="Envj31jSL4E8aKWLNrxv-9" value="&lt;i style=&quot;font-size: 14px;&quot;&gt;PHASE&lt;/i&gt;" style="text;html=1;strokeColor=none;fillColor=none;align=center;verticalAlign=middle;whiteSpace=wrap;rounded=0;labelBackgroundColor=none;fontSize=14;fontColor=#BCBDD0;" parent="1" vertex="1">
                    <mxGeometry x="40" y="480" width="60" height="40" as="geometry"/>
                </mxCell>
                <mxCell id="Envj31jSL4E8aKWLNrxv-10" value="&lt;i style=&quot;font-size: 14px;&quot;&gt;CYCLE&lt;/i&gt;" style="text;html=1;strokeColor=none;fillColor=none;align=center;verticalAlign=middle;whiteSpace=wrap;rounded=0;labelBackgroundColor=none;fontSize=14;fontColor=#BCBDD0;" parent="1" vertex="1">
                    <mxGeometry x="40" y="240" width="60" height="40" as="geometry"/>
                </mxCell>
                <mxCell id="Envj31jSL4E8aKWLNrxv-11" value="" style="endArrow=classic;html=1;rounded=0;fontSize=14;fontColor=#BCBDD0;entryX=0.5;entryY=0;entryDx=0;entryDy=0;strokeColor=#bcbdd0;strokeWidth=3;exitX=0.5;exitY=1;exitDx=0;exitDy=0;" parent="1" source="2" target="Envj31jSL4E8aKWLNrxv-1" edge="1">
                    <mxGeometry width="50" height="50" relative="1" as="geometry">
                        <mxPoint x="280" y="770" as="sourcePoint"/>
                        <mxPoint x="170" y="470" as="targetPoint"/>
                    </mxGeometry>
                </mxCell>
                <mxCell id="Envj31jSL4E8aKWLNrxv-12" value="" style="endArrow=none;html=1;rounded=0;fontSize=14;fontColor=#BCBDD0;strokeColor=#bcbdd0;strokeWidth=3;" parent="1" edge="1">
                    <mxGeometry width="50" height="50" relative="1" as="geometry">
                        <mxPoint x="110" y="270" as="sourcePoint"/>
                        <mxPoint x="130" y="250" as="targetPoint"/>
                    </mxGeometry>
                </mxCell>
                <mxCell id="Envj31jSL4E8aKWLNrxv-13" value="" style="endArrow=classic;html=1;rounded=0;fontSize=14;fontColor=#BCBDD0;strokeColor=#bcbdd0;strokeWidth=3;entryX=0;entryY=0.5;entryDx=0;entryDy=0;exitX=1;exitY=0.5;exitDx=0;exitDy=0;" parent="1" source="2" target="Envj31jSL4E8aKWLNrxv-2" edge="1">
                    <mxGeometry width="50" height="50" relative="1" as="geometry">
                        <mxPoint x="290" y="280" as="sourcePoint"/>
                        <mxPoint x="340" y="320" as="targetPoint"/>
                    </mxGeometry>
                </mxCell>
                <mxCell id="Envj31jSL4E8aKWLNrxv-14" value="" style="endArrow=classic;html=1;rounded=0;fontSize=14;fontColor=#BCBDD0;entryX=0;entryY=0.25;entryDx=0;entryDy=0;strokeColor=#bcbdd0;strokeWidth=3;exitX=1;exitY=0.25;exitDx=0;exitDy=0;" parent="1" source="Envj31jSL4E8aKWLNrxv-1" target="Envj31jSL4E8aKWLNrxv-3" edge="1">
                    <mxGeometry width="50" height="50" relative="1" as="geometry">
                        <mxPoint x="280" y="460" as="sourcePoint"/>
                        <mxPoint x="360" y="460" as="targetPoint"/>
                    </mxGeometry>
                </mxCell>
                <mxCell id="Envj31jSL4E8aKWLNrxv-16" value="" style="endArrow=none;html=1;rounded=0;fontSize=14;fontColor=#BCBDD0;strokeColor=#bcbdd0;strokeWidth=3;" parent="1" edge="1">
                    <mxGeometry width="50" height="50" relative="1" as="geometry">
                        <mxPoint x="330" y="470" as="sourcePoint"/>
                        <mxPoint x="350" y="450" as="targetPoint"/>
                    </mxGeometry>
                </mxCell>
                <mxCell id="Envj31jSL4E8aKWLNrxv-18" value="&lt;i style=&quot;font-size: 14px;&quot;&gt;R&lt;br style=&quot;font-size: 14px;&quot;&gt;&lt;/i&gt;" style="text;html=1;strokeColor=none;fillColor=none;align=center;verticalAlign=middle;whiteSpace=wrap;rounded=0;labelBackgroundColor=none;fontSize=14;fontColor=#BCBDD0;" parent="1" vertex="1">
                    <mxGeometry x="290" y="430" width="20" height="40" as="geometry"/>
                </mxCell>
                <mxCell id="Envj31jSL4E8aKWLNrxv-19" value="&lt;i style=&quot;font-size: 14px;&quot;&gt;F&lt;br style=&quot;font-size: 14px;&quot;&gt;&lt;/i&gt;" style="text;html=1;strokeColor=none;fillColor=none;align=center;verticalAlign=middle;whiteSpace=wrap;rounded=0;labelBackgroundColor=none;fontSize=14;fontColor=#BCBDD0;" parent="1" vertex="1">
                    <mxGeometry x="290" y="470" width="20" height="40" as="geometry"/>
                </mxCell>
                <mxCell id="Envj31jSL4E8aKWLNrxv-20" value="" style="endArrow=classic;html=1;rounded=0;fontSize=14;fontColor=#BCBDD0;entryX=0.5;entryY=0;entryDx=0;entryDy=0;strokeColor=#bcbdd0;strokeWidth=3;exitX=0;exitY=0;exitDx=0;exitDy=0;" parent="1" target="Envj31jSL4E8aKWLNrxv-3" edge="1">
                    <mxGeometry width="50" height="50" relative="1" as="geometry">
                        <mxPoint x="459.9999999999998" y="320" as="sourcePoint"/>
                        <mxPoint x="270" y="450" as="targetPoint"/>
                    </mxGeometry>
                </mxCell>
                <mxCell id="Envj31jSL4E8aKWLNrxv-21" value="" style="endArrow=none;html=1;rounded=0;fontSize=14;fontColor=#BCBDD0;strokeColor=#bcbdd0;strokeWidth=3;" parent="1" edge="1">
                    <mxGeometry width="50" height="50" relative="1" as="geometry">
                        <mxPoint x="450" y="350" as="sourcePoint"/>
                        <mxPoint x="470" y="330" as="targetPoint"/>
                    </mxGeometry>
                </mxCell>
                <mxCell id="Envj31jSL4E8aKWLNrxv-23" value="" style="endArrow=classic;html=1;rounded=0;fontSize=14;fontColor=#BCBDD0;entryX=0.25;entryY=0;entryDx=0;entryDy=0;strokeColor=#bcbdd0;strokeWidth=3;exitX=1;exitY=0.5;exitDx=0;exitDy=0;" parent="1" source="Envj31jSL4E8aKWLNrxv-24" target="Envj31jSL4E8aKWLNrxv-2" edge="1">
                    <mxGeometry width="50" height="50" relative="1" as="geometry">
                        <mxPoint x="80" y="200" as="sourcePoint"/>
                        <mxPoint x="419.57999999999976" y="240" as="targetPoint"/>
                        <Array as="points">
                            <mxPoint x="430" y="200"/>
                        </Array>
                    </mxGeometry>
                </mxCell>
                <mxCell id="Envj31jSL4E8aKWLNrxv-24" value="&lt;i style=&quot;font-size: 14px;&quot;&gt;SYS_TIME&lt;/i&gt;" style="text;html=1;strokeColor=none;fillColor=none;align=center;verticalAlign=middle;whiteSpace=wrap;rounded=0;labelBackgroundColor=none;fontSize=14;fontColor=#BCBDD0;" parent="1" vertex="1">
                    <mxGeometry x="10" y="180" width="90" height="40" as="geometry"/>
                </mxCell>
                <mxCell id="Envj31jSL4E8aKWLNrxv-28" value="" style="endArrow=classic;html=1;rounded=0;fontSize=14;fontColor=#BCBDD0;strokeColor=#bcbdd0;strokeWidth=3;entryX=0.75;entryY=0;entryDx=0;entryDy=0;" parent="1" target="Envj31jSL4E8aKWLNrxv-1" edge="1">
                    <mxGeometry width="50" height="50" relative="1" as="geometry">
                        <mxPoint x="250" y="400" as="sourcePoint"/>
                        <mxPoint x="480" y="480" as="targetPoint"/>
                    </mxGeometry>
                </mxCell>
                <mxCell id="Envj31jSL4E8aKWLNrxv-29" value="CLK_L" style="text;html=1;strokeColor=none;fillColor=none;align=center;verticalAlign=middle;whiteSpace=wrap;rounded=0;labelBackgroundColor=none;fontSize=14;fontColor=#BCBDD0;fontStyle=2" parent="1" vertex="1">
                    <mxGeometry x="220" y="380" width="60" height="20" as="geometry"/>
                </mxCell>
                <mxCell id="J6WF0sHyH2gAG25CupOs-1" value="&lt;font style=&quot;font-size: 14px;&quot;&gt;Generator&lt;/font&gt;" style="rounded=0;whiteSpace=wrap;html=1;fontColor=#BCBDD0;labelBackgroundColor=none;fillColor=none;strokeColor=#bcbdd0;strokeWidth=3;fontSize=14;" parent="1" vertex="1">
                    <mxGeometry x="640" y="440" width="120" height="80" as="geometry"/>
                </mxCell>
                <mxCell id="J6WF0sHyH2gAG25CupOs-2" value="&lt;i style=&quot;font-size: 14px;&quot;&gt;PWM_OUT&lt;/i&gt;" style="text;html=1;strokeColor=none;fillColor=none;align=center;verticalAlign=middle;whiteSpace=wrap;rounded=0;labelBackgroundColor=none;fontSize=14;fontColor=#BCBDD0;" parent="1" vertex="1">
                    <mxGeometry x="840" y="460" width="90" height="40" as="geometry"/>
                </mxCell>
                <mxCell id="J6WF0sHyH2gAG25CupOs-3" value="" style="endArrow=classic;html=1;rounded=0;fontSize=14;fontColor=#BCBDD0;entryX=0;entryY=0.5;entryDx=0;entryDy=0;strokeColor=#bcbdd0;strokeWidth=3;exitX=1;exitY=0.5;exitDx=0;exitDy=0;" parent="1" source="J6WF0sHyH2gAG25CupOs-1" target="J6WF0sHyH2gAG25CupOs-2" edge="1">
                    <mxGeometry width="50" height="50" relative="1" as="geometry">
                        <mxPoint x="760" y="480" as="sourcePoint"/>
                        <mxPoint x="839.9999999999998" y="480" as="targetPoint"/>
                    </mxGeometry>
                </mxCell>
                <mxCell id="J6WF0sHyH2gAG25CupOs-4" value="" style="endArrow=none;html=1;rounded=0;fontSize=14;fontColor=#BCBDD0;strokeColor=#bcbdd0;strokeWidth=3;" parent="1" edge="1">
                    <mxGeometry width="50" height="50" relative="1" as="geometry">
                        <mxPoint x="789.9999999999998" y="490" as="sourcePoint"/>
                        <mxPoint x="809.9999999999998" y="470" as="targetPoint"/>
                    </mxGeometry>
                </mxCell>
                <mxCell id="J6WF0sHyH2gAG25CupOs-7" value="" style="endArrow=classic;html=1;rounded=0;fontSize=14;fontColor=#BCBDD0;entryX=0;entryY=0.75;entryDx=0;entryDy=0;strokeColor=#bcbdd0;strokeWidth=3;exitX=1;exitY=0.75;exitDx=0;exitDy=0;" parent="1" source="Envj31jSL4E8aKWLNrxv-1" target="Envj31jSL4E8aKWLNrxv-3" edge="1">
                    <mxGeometry width="50" height="50" relative="1" as="geometry">
                        <mxPoint x="290" y="510" as="sourcePoint"/>
                        <mxPoint x="370" y="510" as="targetPoint"/>
                    </mxGeometry>
                </mxCell>
                <mxCell id="J6WF0sHyH2gAG25CupOs-8" value="" style="endArrow=none;html=1;rounded=0;fontSize=14;fontColor=#BCBDD0;strokeColor=#bcbdd0;strokeWidth=3;" parent="1" edge="1">
                    <mxGeometry width="50" height="50" relative="1" as="geometry">
                        <mxPoint x="330" y="510" as="sourcePoint"/>
                        <mxPoint x="350" y="490" as="targetPoint"/>
                    </mxGeometry>
                </mxCell>
                <mxCell id="J6WF0sHyH2gAG25CupOs-23" value="" style="endArrow=classic;html=1;rounded=0;fontSize=14;fontColor=#BCBDD0;entryX=0;entryY=0.25;entryDx=0;entryDy=0;strokeColor=#bcbdd0;strokeWidth=3;exitX=1;exitY=0.25;exitDx=0;exitDy=0;" parent="1" edge="1">
                    <mxGeometry width="50" height="50" relative="1" as="geometry">
                        <mxPoint x="520" y="460" as="sourcePoint"/>
                        <mxPoint x="639.9999999999998" y="460" as="targetPoint"/>
                    </mxGeometry>
                </mxCell>
                <mxCell id="J6WF0sHyH2gAG25CupOs-25" value="" style="endArrow=none;html=1;rounded=0;fontSize=14;fontColor=#BCBDD0;strokeColor=#bcbdd0;strokeWidth=3;" parent="1" edge="1">
                    <mxGeometry width="50" height="50" relative="1" as="geometry">
                        <mxPoint x="569.9999999999998" y="470" as="sourcePoint"/>
                        <mxPoint x="589.9999999999998" y="450" as="targetPoint"/>
                    </mxGeometry>
                </mxCell>
                <mxCell id="J6WF0sHyH2gAG25CupOs-27" value="&lt;i style=&quot;font-size: 14px;&quot;&gt;R&lt;br style=&quot;font-size: 14px;&quot;&gt;&lt;/i&gt;" style="text;html=1;strokeColor=none;fillColor=none;align=center;verticalAlign=middle;whiteSpace=wrap;rounded=0;labelBackgroundColor=none;fontSize=14;fontColor=#BCBDD0;" parent="1" vertex="1">
                    <mxGeometry x="530" y="430" width="20" height="40" as="geometry"/>
                </mxCell>
                <mxCell id="J6WF0sHyH2gAG25CupOs-28" value="&lt;i style=&quot;font-size: 14px;&quot;&gt;F&lt;br style=&quot;font-size: 14px;&quot;&gt;&lt;/i&gt;" style="text;html=1;strokeColor=none;fillColor=none;align=center;verticalAlign=middle;whiteSpace=wrap;rounded=0;labelBackgroundColor=none;fontSize=14;fontColor=#BCBDD0;" parent="1" vertex="1">
                    <mxGeometry x="530" y="470" width="20" height="40" as="geometry"/>
                </mxCell>
                <mxCell id="J6WF0sHyH2gAG25CupOs-29" value="" style="endArrow=classic;html=1;rounded=0;fontSize=14;fontColor=#BCBDD0;entryX=0;entryY=0.75;entryDx=0;entryDy=0;strokeColor=#bcbdd0;strokeWidth=3;exitX=1;exitY=0.75;exitDx=0;exitDy=0;" parent="1" source="Envj31jSL4E8aKWLNrxv-3" target="J6WF0sHyH2gAG25CupOs-1" edge="1">
                    <mxGeometry width="50" height="50" relative="1" as="geometry">
                        <mxPoint x="520" y="480" as="sourcePoint"/>
                        <mxPoint x="639.9999999999998" y="480" as="targetPoint"/>
                    </mxGeometry>
                </mxCell>
                <mxCell id="J6WF0sHyH2gAG25CupOs-30" value="" style="endArrow=none;html=1;rounded=0;fontSize=14;fontColor=#BCBDD0;strokeColor=#bcbdd0;strokeWidth=3;" parent="1" edge="1">
                    <mxGeometry width="50" height="50" relative="1" as="geometry">
                        <mxPoint x="569.9999999999998" y="510" as="sourcePoint"/>
                        <mxPoint x="589.9999999999998" y="490" as="targetPoint"/>
                    </mxGeometry>
                </mxCell>
                <mxCell id="J6WF0sHyH2gAG25CupOs-34" value="" style="endArrow=classic;html=1;rounded=0;fontSize=14;fontColor=#BCBDD0;entryX=0.25;entryY=0;entryDx=0;entryDy=0;strokeColor=#bcbdd0;strokeWidth=3;exitX=0.5;exitY=1;exitDx=0;exitDy=0;" parent="1" source="Envj31jSL4E8aKWLNrxv-2" target="J6WF0sHyH2gAG25CupOs-1" edge="1">
                    <mxGeometry width="50" height="50" relative="1" as="geometry">
                        <mxPoint x="440" y="330" as="sourcePoint"/>
                        <mxPoint x="440" y="450" as="targetPoint"/>
                        <Array as="points">
                            <mxPoint x="460" y="360"/>
                            <mxPoint x="670" y="360"/>
                        </Array>
                    </mxGeometry>
                </mxCell>
                <mxCell id="J6WF0sHyH2gAG25CupOs-42" value="" style="endArrow=classic;html=1;rounded=0;fontSize=14;fontColor=#BCBDD0;entryX=0.25;entryY=0;entryDx=0;entryDy=0;strokeColor=#bcbdd0;strokeWidth=3;" parent="1" target="Envj31jSL4E8aKWLNrxv-3" edge="1">
                    <mxGeometry width="50" height="50" relative="1" as="geometry">
                        <mxPoint x="320" y="280" as="sourcePoint"/>
                        <mxPoint x="440" y="430" as="targetPoint"/>
                        <Array as="points">
                            <mxPoint x="320" y="350"/>
                            <mxPoint x="430" y="350"/>
                        </Array>
                    </mxGeometry>
                </mxCell>
                <mxCell id="vQRujZNzsjGiFNIDueCr-1" value="" style="endArrow=classic;html=1;rounded=0;fontSize=14;fontColor=#BCBDD0;strokeColor=#bcbdd0;strokeWidth=3;exitX=0.5;exitY=1;exitDx=0;exitDy=0;entryX=0;entryY=0.5;entryDx=0;entryDy=0;" parent="1" source="Envj31jSL4E8aKWLNrxv-1" target="vQRujZNzsjGiFNIDueCr-2" edge="1">
                    <mxGeometry width="50" height="50" relative="1" as="geometry">
                        <mxPoint x="770" y="490" as="sourcePoint"/>
                        <mxPoint x="840" y="560" as="targetPoint"/>
                        <Array as="points">
                            <mxPoint x="220" y="560"/>
                        </Array>
                    </mxGeometry>
                </mxCell>
                <mxCell id="vQRujZNzsjGiFNIDueCr-2" value="&lt;i style=&quot;font-size: 14px&quot;&gt;DONE&lt;br style=&quot;font-size: 14px&quot;&gt;&lt;/i&gt;" style="text;html=1;strokeColor=none;fillColor=none;align=center;verticalAlign=middle;whiteSpace=wrap;rounded=0;labelBackgroundColor=none;fontSize=14;fontColor=#BCBDD0;" parent="1" vertex="1">
                    <mxGeometry x="840" y="540" width="60" height="40" as="geometry"/>
                </mxCell>
                <mxCell id="CctJdnO_5R8gQSGLH6jG-1" value="" style="endArrow=classic;html=1;rounded=0;fontSize=14;fontColor=#BCBDD0;strokeColor=#bcbdd0;strokeWidth=3;exitX=0.5;exitY=1;exitDx=0;exitDy=0;entryX=0;entryY=0.5;entryDx=0;entryDy=0;" parent="1" source="Envj31jSL4E8aKWLNrxv-2" target="CctJdnO_5R8gQSGLH6jG-2" edge="1">
                    <mxGeometry width="50" height="50" relative="1" as="geometry">
                        <mxPoint x="490" y="320" as="sourcePoint"/>
                        <mxPoint x="840" y="360" as="targetPoint"/>
                        <Array as="points">
                            <mxPoint x="460" y="360"/>
                            <mxPoint x="700" y="360"/>
                        </Array>
                    </mxGeometry>
                </mxCell>
                <mxCell id="CctJdnO_5R8gQSGLH6jG-2" value="&lt;i style=&quot;font-size: 14px;&quot;&gt;TIME_CNT&lt;/i&gt;" style="text;html=1;strokeColor=none;fillColor=none;align=center;verticalAlign=middle;whiteSpace=wrap;rounded=0;labelBackgroundColor=none;fontSize=14;fontColor=#BCBDD0;" parent="1" vertex="1">
                    <mxGeometry x="840" y="340" width="90" height="40" as="geometry"/>
                </mxCell>
                <mxCell id="CctJdnO_5R8gQSGLH6jG-4" value="CLK" style="text;html=1;strokeColor=none;fillColor=none;align=center;verticalAlign=middle;whiteSpace=wrap;rounded=0;labelBackgroundColor=none;fontSize=14;fontColor=#BCBDD0;fontStyle=2" parent="1" vertex="1">
                    <mxGeometry x="170" y="120" width="60" height="20" as="geometry"/>
                </mxCell>
                <mxCell id="CctJdnO_5R8gQSGLH6jG-5" value="" style="endArrow=classic;html=1;rounded=0;fontSize=14;fontColor=#BCBDD0;strokeColor=#bcbdd0;strokeWidth=3;entryX=0.093;entryY=-0.003;entryDx=0;entryDy=0;exitX=0.5;exitY=1;exitDx=0;exitDy=0;entryPerimeter=0;" parent="1" source="CctJdnO_5R8gQSGLH6jG-4" target="Envj31jSL4E8aKWLNrxv-44" edge="1">
                    <mxGeometry width="50" height="50" relative="1" as="geometry">
                        <mxPoint x="260" y="410" as="sourcePoint"/>
                        <mxPoint x="260" y="450" as="targetPoint"/>
                    </mxGeometry>
                </mxCell>
                <mxCell id="CctJdnO_5R8gQSGLH6jG-6" value="" style="endArrow=classic;html=1;rounded=0;fontSize=14;fontColor=#BCBDD0;strokeColor=#bcbdd0;strokeWidth=3;exitX=0.5;exitY=1;exitDx=0;exitDy=0;" parent="1" source="CctJdnO_5R8gQSGLH6jG-7" edge="1">
                    <mxGeometry width="50" height="50" relative="1" as="geometry">
                        <mxPoint x="270.48" y="139.9999999999999" as="sourcePoint"/>
                        <mxPoint x="270" y="170" as="targetPoint"/>
                    </mxGeometry>
                </mxCell>
                <mxCell id="CctJdnO_5R8gQSGLH6jG-7" value="CLK_L" style="text;html=1;strokeColor=none;fillColor=none;align=center;verticalAlign=middle;whiteSpace=wrap;rounded=0;labelBackgroundColor=none;fontSize=14;fontColor=#BCBDD0;fontStyle=2" parent="1" vertex="1">
                    <mxGeometry x="240" y="120" width="60" height="20" as="geometry"/>
                </mxCell>
                <mxCell id="CctJdnO_5R8gQSGLH6jG-8" value="CLK" style="text;html=1;strokeColor=none;fillColor=none;align=center;verticalAlign=middle;whiteSpace=wrap;rounded=0;labelBackgroundColor=none;fontSize=14;fontColor=#BCBDD0;fontStyle=2" parent="1" vertex="1">
                    <mxGeometry x="460" y="380" width="60" height="20" as="geometry"/>
                </mxCell>
                <mxCell id="CctJdnO_5R8gQSGLH6jG-9" value="" style="endArrow=classic;html=1;rounded=0;fontSize=14;fontColor=#BCBDD0;strokeColor=#bcbdd0;strokeWidth=3;exitX=0.5;exitY=1;exitDx=0;exitDy=0;" parent="1" source="CctJdnO_5R8gQSGLH6jG-8" edge="1">
                    <mxGeometry width="50" height="50" relative="1" as="geometry">
                        <mxPoint x="550" y="670" as="sourcePoint"/>
                        <mxPoint x="490" y="440" as="targetPoint"/>
                    </mxGeometry>
                </mxCell>
                <mxCell id="CctJdnO_5R8gQSGLH6jG-10" value="CLK" style="text;html=1;strokeColor=none;fillColor=none;align=center;verticalAlign=middle;whiteSpace=wrap;rounded=0;labelBackgroundColor=none;fontSize=14;fontColor=#BCBDD0;fontStyle=2" parent="1" vertex="1">
                    <mxGeometry x="700" y="380" width="60" height="20" as="geometry"/>
                </mxCell>
                <mxCell id="CctJdnO_5R8gQSGLH6jG-11" value="" style="endArrow=classic;html=1;rounded=0;fontSize=14;fontColor=#BCBDD0;strokeColor=#bcbdd0;strokeWidth=3;exitX=0.5;exitY=1;exitDx=0;exitDy=0;entryX=0.75;entryY=0;entryDx=0;entryDy=0;" parent="1" source="CctJdnO_5R8gQSGLH6jG-10" target="J6WF0sHyH2gAG25CupOs-1" edge="1">
                    <mxGeometry width="50" height="50" relative="1" as="geometry">
                        <mxPoint x="790" y="670" as="sourcePoint"/>
                        <mxPoint x="730" y="440" as="targetPoint"/>
                    </mxGeometry>
                </mxCell>
                <mxCell id="CctJdnO_5R8gQSGLH6jG-12" value="CLK" style="text;html=1;strokeColor=none;fillColor=none;align=center;verticalAlign=middle;whiteSpace=wrap;rounded=0;labelBackgroundColor=none;fontSize=14;fontColor=#BCBDD0;fontStyle=2" parent="1" vertex="1">
                    <mxGeometry x="460" y="180" width="60" height="20" as="geometry"/>
                </mxCell>
                <mxCell id="CctJdnO_5R8gQSGLH6jG-13" value="" style="endArrow=classic;html=1;rounded=0;fontSize=14;fontColor=#BCBDD0;strokeColor=#bcbdd0;strokeWidth=3;exitX=0.5;exitY=1;exitDx=0;exitDy=0;entryX=0.75;entryY=0;entryDx=0;entryDy=0;" parent="1" source="CctJdnO_5R8gQSGLH6jG-12" target="Envj31jSL4E8aKWLNrxv-2" edge="1">
                    <mxGeometry width="50" height="50" relative="1" as="geometry">
                        <mxPoint x="540" y="470" as="sourcePoint"/>
                        <mxPoint x="480" y="240" as="targetPoint"/>
                    </mxGeometry>
                </mxCell>
                <mxCell id="2" value="&lt;font style=&quot;font-size: 14px&quot;&gt;CYCLE&lt;br&gt;Buffer&lt;br&gt;&lt;/font&gt;" style="rounded=0;whiteSpace=wrap;html=1;fontColor=#BCBDD0;labelBackgroundColor=none;fillColor=none;strokeColor=#bcbdd0;strokeWidth=3;fontSize=14;" vertex="1" parent="1">
                    <mxGeometry x="160" y="240" width="120" height="80" as="geometry"/>
                </mxCell>
                <mxCell id="3" value="" style="endArrow=classic;html=1;rounded=0;fontSize=14;fontColor=#BCBDD0;strokeColor=#bcbdd0;strokeWidth=3;entryX=0;entryY=0.25;entryDx=0;entryDy=0;exitX=1;exitY=0.5;exitDx=0;exitDy=0;" edge="1" parent="1" source="Envj31jSL4E8aKWLNrxv-10" target="2">
                    <mxGeometry width="50" height="50" relative="1" as="geometry">
                        <mxPoint x="290" y="290" as="sourcePoint"/>
                        <mxPoint x="410" y="290" as="targetPoint"/>
                    </mxGeometry>
                </mxCell>
                <mxCell id="5" value="&lt;i style=&quot;font-size: 14px&quot;&gt;SET&lt;/i&gt;" style="text;html=1;strokeColor=none;fillColor=none;align=center;verticalAlign=middle;whiteSpace=wrap;rounded=0;labelBackgroundColor=none;fontSize=14;fontColor=#BCBDD0;" vertex="1" parent="1">
                    <mxGeometry x="60" y="280" width="40" height="40" as="geometry"/>
                </mxCell>
                <mxCell id="6" value="" style="endArrow=classic;html=1;rounded=0;fontSize=14;fontColor=#BCBDD0;strokeColor=#bcbdd0;strokeWidth=3;entryX=0;entryY=0.75;entryDx=0;entryDy=0;exitX=1;exitY=0.5;exitDx=0;exitDy=0;" edge="1" parent="1" source="5" target="2">
                    <mxGeometry width="50" height="50" relative="1" as="geometry">
                        <mxPoint x="110" y="270" as="sourcePoint"/>
                        <mxPoint x="170" y="270" as="targetPoint"/>
                    </mxGeometry>
                </mxCell>
                <mxCell id="7" value="&lt;i style=&quot;font-size: 14px;&quot;&gt;CYCLE&lt;/i&gt;" style="text;html=1;strokeColor=none;fillColor=none;align=center;verticalAlign=middle;whiteSpace=wrap;rounded=0;labelBackgroundColor=none;fontSize=14;fontColor=#BCBDD0;" vertex="1" parent="1">
                    <mxGeometry x="280" y="240" width="60" height="40" as="geometry"/>
                </mxCell>
                <mxCell id="8" value="&lt;i style=&quot;font-size: 14px;&quot;&gt;CYCLE&lt;/i&gt;" style="text;html=1;strokeColor=none;fillColor=none;align=center;verticalAlign=middle;whiteSpace=wrap;rounded=0;labelBackgroundColor=none;fontSize=14;fontColor=#BCBDD0;" vertex="1" parent="1">
                    <mxGeometry x="220" y="320" width="60" height="40" as="geometry"/>
                </mxCell>
            </root>
        </mxGraphModel>
    </diagram>
</mxfile>